<?xml version="1.0" standalone="no"?>
<!DOCTYPE svg PUBLIC "-//W3C//DTD SVG 1.1//EN" "http://www.w3.org/Graphics/SVG/1.1/DTD/svg11.dtd" >
<!--
2013-9-30: Created.
-->
<svg>
<metadata>
Created by iconfont
</metadata>
<defs>

<font id="iconfont" horiz-adv-x="1024" >
  <font-face
    font-family="iconfont"
    font-weight="500"
    font-stretch="normal"
    units-per-em="1024"
    ascent="896"
    descent="-128"
  />
    <missing-glyph />
    
    <glyph glyph-name="backtop" unicode="&#58914;" d="M543.261908 701.263571c-8.259976 8.263976-19.092944 12.392964-29.926912 12.389963a42.769875 42.769875 0 0 1-4.303987-0.219999c-0.173999-0.02-0.342999-0.042-0.515999-0.063-0.492999-0.055-0.987997-0.113-1.480995-0.187999-0.339999-0.05-0.682998-0.113-1.020997-0.17-0.317999-0.056-0.637998-0.108-0.958998-0.170999-0.432999-0.086-0.862997-0.184999-1.290996-0.284-0.224999-0.052-0.446999-0.1-0.668998-0.155999-0.485999-0.118-0.965997-0.250999-1.444996-0.388999-0.168-0.047-0.337999-0.094-0.505998-0.145a39.044886 39.044886 0 0 1-1.519996-0.487998c-0.139-0.047-0.277999-0.092-0.416999-0.14a43.695872 43.695872 0 0 1-1.556995-0.587998c-0.12-0.047-0.233999-0.09-0.349999-0.14-0.534998-0.215999-1.064997-0.447999-1.583995-0.687998l-0.290999-0.129999a44.25987 44.25987 0 0 1-1.631996-0.808998l-0.196999-0.1c-0.583998-0.309999-1.159997-0.630998-1.729995-0.966997a42.512875 42.512875 0 0 1-9.141973-7.239978L119.238151 337.09463700000003c-16.519952-16.520952-16.519952-43.305873 0-59.827824 16.519952-16.521952 43.356873-16.521952 59.877824 0l291.953145 291.908144v-654.804081c0-23.364932 18.896945-42.371876 42.257876-42.371876h-0.159999c23.364932 0 42.144877 19.006944 42.144876 42.371876V569.2819569999999l292.155144-291.803145c16.519952-16.518952 43.377873-16.409952 59.896825 0.214999h0.04c16.521952 16.624951 16.533952 43.092874 0.01 59.619826L543.262908 701.2645709999999zM986.50561 837.465171c0 23.263932-18.863945 42.121877-42.128877 42.121877H76.459276c-23.263932 0-42.122877-18.858945-42.122877-42.121877 0-23.262932 18.858945-42.121877 42.122877-42.121876h867.917457c23.263932 0 42.127877 18.858945 42.127877 42.121876z"  horiz-adv-x="1024" />

    
    <glyph glyph-name="comment-filling" unicode="&#59017;" d="M853.333333 757.333333H170.666667c-40.533333 0-74.666667-34.133333-74.666667-74.666666v-516.266667c2.133333-38.4 34.133333-70.4 74.666667-70.4h151.466666v-119.466667c2.133333-27.733333 36.266667-38.4 55.466667-19.2l136.533333 138.666667H853.333333c40.533333 0 74.666667 34.133333 74.666667 74.666667V682.666667c0 40.533333-34.133333 74.666667-74.666667 74.666666zM514.133333 341.333333H298.666667c-17.066667 0-32 14.933333-32 32s12.8 29.866667 29.866666 32H512c17.066667 0 32-14.933333 32-32s-12.8-29.866667-29.866667-32z m160 149.333334H298.666667c-17.066667 0-32 14.933333-32 32s12.8 29.866667 29.866666 32h375.466667c17.066667 0 32-14.933333 32-32s-12.8-29.866667-29.866667-32z"  horiz-adv-x="1024" />

    
    <glyph glyph-name="dynamic-filling" unicode="&#59018;" d="M456.533333 840.533333c-12.8 4.266667-27.733333-2.133333-36.266666-12.8l-234.666667-362.666666c-6.4-10.666667-6.4-21.333333-2.133333-32 6.4-10.666667 17.066667-17.066667 27.733333-17.066667h234.666667c17.066667 0 32 14.933333 32 32V810.666667c2.133333 14.933333-6.4 27.733333-21.333334 29.866666zM810.666667 352H576c-17.066667 0-32-14.933333-32-32v-362.666667c0-14.933333 8.533333-25.6 23.466667-29.866666 2.133333 0 6.4-2.133333 8.533333-2.133334 10.666667 0 21.333333 4.266667 27.733333 14.933334l234.666667 362.666666c6.4 10.666667 6.4 21.333333 2.133333 32s-19.2 17.066667-29.866666 17.066667zM448 352H85.333333c-14.933333 0-27.733333-8.533333-29.866666-23.466667-4.266667-12.8 2.133333-27.733333 12.8-36.266666l362.666666-234.666667c4.266667-4.266667 10.666667-4.266667 17.066667-4.266667 4.266667 0 10.666667 2.133333 14.933333 4.266667 10.666667 6.4 17.066667 17.066667 17.066667 27.733333V320c0 17.066667-14.933333 32-32 32zM955.733333 475.733333l-362.666666 234.666667c-10.666667 6.4-21.333333 6.4-32 2.133333-10.666667-6.4-17.066667-17.066667-17.066667-27.733333v-234.666667c0-17.066667 14.933333-32 32-32h362.666667c14.933333 0 25.6 8.533333 29.866666 23.466667s0 25.6-12.8 34.133333z"  horiz-adv-x="1024" />

    
    <glyph glyph-name="favorite-filling" unicode="&#59019;" d="M465.066667 806.4l-104.533334-213.333333-234.666666-34.133334c-10.666667-2.133333-21.333333-6.4-29.866667-14.933333l-2.133333-2.133333c-17.066667-21.333333-17.066667-53.333333 4.266666-72.533334l170.666667-166.4-40.533333-234.666666c-2.133333-10.666667 0-23.466667 6.4-34.133334l2.133333-2.133333c14.933333-23.466667 44.8-32 70.4-19.2l211.2 110.933333 211.2-110.933333c10.666667-6.4 21.333333-6.4 34.133333-6.4h4.266667c27.733333 6.4 44.8 32 40.533333 61.866667l-40.533333 234.666666 170.666667 166.4c8.533333 8.533333 12.8 19.2 14.933333 29.866667v4.266667c2.133333 27.733333-17.066667 53.333333-44.8 57.6l-234.666667 34.133333-104.533333 213.333333c-14.933333 8.533333-23.466667 17.066667-34.133333 23.466667-25.6 12.8-57.6 2.133333-70.4-25.6z"  horiz-adv-x="1024" />

    
    <glyph glyph-name="task-filling" unicode="&#59020;" d="M808.533333 757.333333l-2.133333-2.133333-2.133333-2.133333c-4.266667-2.133333-10.666667-6.4-19.2-8.533334-23.466667-10.666667-57.6-14.933333-102.4-14.933333-38.4 0-72.533333 8.533333-149.333334 32L509.866667 768c-74.666667 23.466667-113.066667 32-157.866667 32-51.2 0-93.866667-8.533333-125.866667-21.333333-21.333333-8.533333-34.133333-17.066667-42.666666-25.6-4.266667-4.266667-8.533333-12.8-8.533334-21.333334V0c0-17.066667 14.933333-32 32-32s32 14.933333 32 32V279.466667c4.266667 2.133333 6.4 4.266667 10.666667 6.4 23.466667 10.666667 57.6 14.933333 102.4 14.933333h8.533333c36.266667-2.133333 70.4-8.533333 140.8-32l34.133334-10.666667c70.4-21.333333 106.666667-29.866667 151.466666-29.866666 51.2 0 93.866667 8.533333 125.866667 21.333333 21.333333 8.533333 34.133333 17.066667 42.666667 25.6 6.4 6.4 8.533333 14.933333 8.533333 23.466667V731.733333c-2.133333 27.733333-34.133333 42.666667-55.466667 25.6z"  horiz-adv-x="1024" />

    
    <glyph glyph-name="close-new" unicode="&#58984;" d="M556.8 384L832 659.2c12.8 12.8 12.8 32 0 44.8-12.8 12.8-32 12.8-44.8 0L512 428.8l-275.2 277.333333c-12.8 12.8-32 12.8-44.8 0-12.8-12.8-12.8-32 0-44.8l275.2-277.333333-277.333333-275.2c-12.8-12.8-12.8-32 0-44.8 6.4-6.4 14.933333-8.533333 23.466666-8.533333s17.066667 2.133333 23.466667 8.533333L512 339.20000000000005 787.2 64c6.4-6.4 14.933333-8.533333 23.466667-8.533333s17.066667 2.133333 23.466666 8.533333c12.8 12.8 12.8 32 0 44.8L556.8 384z"  horiz-adv-x="1024" />

    
    <glyph glyph-name="bind" unicode="&#58943;" d="M588.8-51.200000000000045a25.6 25.6 0 0 0-25.6 25.6v102.4a25.6 25.6 0 1 0 51.2 0v-102.4a25.6 25.6 0 0 0-25.6-25.6zM896 256a25.6 25.6 0 0 0-25.6-25.6h-102.4a25.6 25.6 0 1 0 0 51.2h102.4a25.6 25.6 0 0 0 25.6-25.6zM796.6976 48.10239999999999a25.5744 25.5744 0 0 0-36.1984 0l-72.3968 72.3968a25.5744 25.5744 0 1 0 36.1984 36.1984l72.3968-72.3968a25.5744 25.5744 0 0 0 0-36.1984zM435.2 819.2a25.6 25.6 0 0 0 25.6-25.6v-102.4a25.6 25.6 0 1 0-51.2 0V793.6a25.6 25.6 0 0 0 25.6 25.6zM128 512a25.6 25.6 0 0 0 25.6 25.6h102.4a25.6 25.6 0 1 0 0-51.2H153.6a25.6 25.6 0 0 0-25.6 25.6zM227.3024 719.8976a25.5744 25.5744 0 0 0 36.1984 0l72.3968-72.3968a25.5744 25.5744 0 1 0-36.1984-36.1984L227.3024 683.6992a25.5744 25.5744 0 0 0 0 36.1984zM617.7792 267.8528c-19.5328 0-39.7312 5.12-58.3168 15.8464l-36.1984 20.8896c-52.1472 30.1312-72.32 93.1072-44.9792 140.416a25.6 25.6 0 1 0 44.3392-25.6c-13.2096-22.8864-1.4336-54.4768 26.2656-70.4768l36.1984-20.8896c27.6992-16 60.9792-10.368 74.1632 12.4928L843.008 658.816c6.0928 10.5472 7.04 23.424 2.688 36.2496-4.736 14.0032-15.0272 26.1632-28.9792 34.2272l-36.1728 20.864c-13.952 8.064-29.5424 10.88-44.1344 7.9872-13.312-2.6624-23.9872-9.9328-30.0544-20.4544l-84.0704-145.6128a25.6256 25.6256 0 0 0-34.9696-9.3696 25.5744 25.5744 0 0 0-9.3696 34.9696l84.0704 145.6128c13.5424 23.4752 36.4032 39.4752 64.3584 45.0816a114.7648 114.7648 0 0 0 79.7696-13.8752l36.1728-20.864c24.7296-14.2848 43.1872-36.3776 51.8912-62.1824 9.088-26.9824 6.6816-54.784-6.8864-78.2336l-183.7568-318.2848c-17.5616-30.4384-50.5856-47.0784-85.7856-47.0784zM353.0752 34.32960000000003a116.992 116.992 0 0 0-58.4192 15.9488l-36.1984 20.8896c-52.1472 30.1056-72.32 93.1072-45.0048 140.416l183.7568 318.2848c27.3152 47.2832 91.9552 61.3376 144.128 31.232l36.1984-20.8896c52.1472-30.1312 72.32-93.1072 45.0048-140.416a25.6 25.6 0 0 0-44.3392 25.6c13.2352 22.8864 1.4336 54.4768-26.24 70.4768l-36.1984 20.8896c-27.6992 16-60.9792 10.368-74.1888-12.4672l-183.7568-318.2848c-13.2096-22.8864-1.4336-54.5024 26.2656-70.4768l36.1984-20.8896c13.952-8.064 29.6448-10.88 44.1344-8.0128 13.312 2.6624 23.9872 9.9584 30.0544 20.48l84.0704 145.6128a25.5744 25.5744 0 1 0 44.3392-25.6l-84.0704-145.6128c-13.568-23.4752-36.4032-39.4752-64.3584-45.0816a109.056 109.056 0 0 0-21.376-2.0992z"  horiz-adv-x="1024" />

    
    <glyph glyph-name="edit" unicode="&#58901;" d="M832.39822222 483.03217778c-15.53445925 0-29.12711111-13.59265185-29.12711111-29.12711111v-330.10725926c0-21.35988148-17.47626667-40.77795555-40.77795556-40.77795556H242.08877037c-21.35988148 0-40.77795555 17.47626667-40.77795555 40.77795556V644.20219259c0 21.35988148 17.47626667 40.77795555 40.77795555 40.77795556h330.10725926c15.53445925 0 29.12711111 13.59265185 29.12711112 29.1271111s-13.59265185 29.12711111-29.12711112 29.12711112h-330.10725926c-54.37060741 0-99.03217778-44.66157037-99.03217778-99.03217778v-520.40438518c0-54.37060741 44.66157037-99.03217778 99.03217778-99.03217778h520.40438518c54.37060741 0 99.03217778 44.66157037 99.03217778 99.03217778v330.10725926c0 15.53445925-13.59265185 29.12711111-29.12711111 29.12711111zM873.17617778 735.46714075c-11.65084445 11.65084445-29.12711111 11.65084445-40.77795556 0l-388.36148147-388.3614815c-11.65084445-11.65084445-11.65084445-29.12711111 0-40.77795555 5.82542222-5.82542222 13.59265185-7.76722963 21.35988147-7.76722962s15.53445925 1.94180741 21.35988148 7.76722962l388.36148148 388.36148148c7.76722963 9.70903703 7.76722963 29.12711111-1.9418074 40.77795557z"  horiz-adv-x="1024" />

    
    <glyph glyph-name="msg" unicode="&#58925;" d="M988.11626773 624.06272213c0 68.59589867-55.60782293 124.2037216-124.2037216 124.2037216L159.41725653 748.26644373c-68.59589867 0-124.2037216-55.60782293-124.2037216-124.2037216l0-478.54928c0-68.59589867 55.60782293-124.2037216 124.2037216-124.2037216l704.49528854 0c68.59589867 0 124.2037216 55.60782293 124.2037216 124.2037216L988.11626773 624.06272213zM865.93514453 703.5138528c12.8636416 0 25.00796587-3.69700053 35.75404587-9.17209813L531.9989504 344.1625536c-1.30983147-1.2388832-1.23342507-0.97800747-1.8697856-1.99312747-1.52158827-1.13846187-6.4596544-4.18382187-16.4798688-4.18382186-10.02348907 0-14.960464 2.93838933-16.48096 4.0735776-0.72149867 1.14937707-0.7062176 0.76406827-2.1284768 2.06953493l-376.6640032 346.04013227c12.3833696 8.06092373 27.1419008 13.34391253 42.98759253 13.34391253L865.93514453 703.5127616zM943.36367573 144.54962452999996c0-43.58138347-33.8460576-78.48840427-77.4285312-78.48840426L161.36235733 66.06122027000004c-43.58247467 0-80.304704 34.9070208-80.304704 78.48840426L81.05765333 623.29865387c0 11.33877867 3.05081707 22.1176032 7.3699872 31.87476053l374.91865174-343.57000747c5.239328-5.6562912 20.7783008-18.8550304 50.14364053-18.8550304 29.65241173 0 45.12370987 13.45961493 50.21458987 19.01875947l369.92055146 350.8264768c6.66813653-11.58437227 9.73860053-24.99595947 9.73860054-39.29386667L943.36367573 144.54962452999996z"  horiz-adv-x="1024" />

    
    <glyph glyph-name="fenxiang" unicode="&#58895;" d="M844.214857 405.625905c-57.295238-57.027048-104.17981-8.704-65.584762 33.377524l128.999619 200.996571c-202.020571 3.779048-321.438476-71.533714-372.370285-139.654095-37.083429-49.761524-59.343238-165.814857-66.852572-196.534857-6.290286-25.819429-27.111619-42.983619-52.906667-39.107048-27.37981 6.680381-42.349714 48.64-35.669333 75.946667 1.29219 5.290667 28.574476 129.901714 85.625905 206.238476 50.127238 67.193905 149.26019 153.136762 377.685333 164.815238L692.419048 804.937143c-23.405714 15.701333-37.61981 41.496381-12.653715 72.508952 15.798857 23.186286 45.763048 5.290667 69.046857-10.361905l251.148191-158.549333a50.907429 50.907429 0 0 0 13.726476-70.631619l-169.472-232.277333z m62.464 234.179047c-2.169905-0.390095-6.875429-1.26781 0 0z m0.950857 0.195048l-0.950857-0.195048a21.089524 21.089524 0 0 1 0.950857 0.195048zM512 830.610286C265.728 830.610286 65.389714 630.272 65.389714 384S265.728-62.610286 512-62.610286 958.610286 137.728 958.610286 384a32.670476 32.670476 0 0 0 65.365333 0c0-282.307048-229.668571-511.975619-511.975619-511.975619C229.692952-127.975619 0.024381 101.692952 0.024381 384 0.024381 666.307048 229.692952 895.975619 512 895.975619a32.670476 32.670476 0 1 0 0-65.365333z"  horiz-adv-x="1024" />

    
    <glyph glyph-name="duigou" unicode="&#58885;" d="M997.888 825.856C686.592 634.88 460.8 393.728 358.912 272.896L110.08 467.968 0 379.392l429.568-437.248C503.296 131.584 737.792 501.76 1024 764.928l-26.112 60.928m0 0z"  horiz-adv-x="1024" />

    
    <glyph glyph-name="order-comment" unicode="&#58890;" d="M379.408 636.012h257.654c31.723 0 51.032 14.129 61.691 25.93 13.354 14.857 20.707 34.679 20.707 55.742 0 40.629-28.316 81.828-82.398 81.828h-30.02v6.883c0 43.892-36.91 79.605-82.298 79.605h-30.953c-45.338 0-82.341-35.713-82.341-79.605v-6.883h-32.043c-53.982 0-82.134-41.298-82.134-82.084 0.001-40.476 28.153-81.416 82.135-81.416z m0 121.681h52.949c11.542 0 20.913 9.316 20.913 20.913V806.395c0 20.863 18.163 37.836 40.522 37.836h30.953c22.359 0 40.53-16.973 40.53-37.836v-27.789c0-11.597 9.361-20.913 20.904-20.913h50.883c29.963 0 40.572-21.533 40.572-40.009 0-10.61-3.62-20.756-9.983-27.793-7.197-8.023-17.442-12.109-30.589-12.109H379.408c-13.089 0-23.343 4.033-30.433 12.006-6.313 6.934-9.939 17.08-9.939 27.64 0 14.956 8.493 40.265 40.372 40.265zM866.137 761.419h-84.828c-11.543 0-20.913-9.315-20.913-20.909 0-11.489 9.37-20.859 20.913-20.859h63.922v-797.226H173.256V719.6510000000001h63.145c11.543 0 20.913 9.37 20.913 20.859 0 11.594-9.37 20.909-20.913 20.909H152.4c-11.543 0-20.906-9.315-20.906-20.909v-838.94c0-11.543 9.363-20.91 20.906-20.91h713.736c11.593 0 20.913 9.367 20.913 20.91V740.51a20.853 20.853 0 0 1-20.912 20.909zM690.162 460.966l-259.458-314.12-90.214 99.378c-7.767 8.593-20.963 9.214-29.506 1.447-8.536-7.761-9.206-20.96-1.447-29.5l106.418-117.283c3.983-4.347 9.569-6.834 15.47-6.834h0.47a20.68 20.68 0 0 1 15.626 7.56l274.891 332.75c7.347 8.9 6.057 22.046-2.851 29.399-8.95 7.4-22.046 6.157-29.399-2.797zM509.062 773.789c5.9 0 11.287 2.536 15.063 6.263 3.775 3.777 6.264 9.214 6.264 14.597 0 5.487-2.488 10.869-6.264 15.113-7.916 7.453-21.74 7.453-29.656 0-3.727-3.83-5.85-9.213-5.85-15.113 0-5.383 2.123-10.82 5.85-14.597 3.777-3.727 9.156-6.263 14.593-6.263z"  horiz-adv-x="1024" />

    
    <glyph glyph-name="angle-down" unicode="&#59317;" d="M922.43164063 552.59179688L512.31640625 142.4765625 101.56835937 553.22460938l37.28320313 37.28320312 373.46484375-373.46484377 372.83203126 372.83203127z"  horiz-adv-x="1024" />

    
    <glyph glyph-name="order-deliver" unicode="&#58954;" d="M960 723.2L550.4 889.6C531.2 896 512 896 492.8 889.6L76.8 723.2C51.2 716.8 32 684.8 32 659.2l0-486.4c0-25.6 12.8-51.2 38.4-64l416-224C492.8-128 505.6-128 518.4-128s25.6 0 32 6.4l416 224c25.6 12.8 38.4 38.4 38.4 64L1004.8 659.2C1004.8 684.8 985.6 716.8 960 723.2zM512 844.8c0 0 6.4 0 6.4 0 0 0 6.4 0 6.4 0l396.8-160-102.4-57.6L422.4 812.8 512 844.8zM243.2 736L640 537.6l-121.6-64L115.2 684.8 243.2 736zM96 147.20000000000005c-6.4 6.4-12.8 12.8-12.8 19.2L83.2 652.8l416-217.6 0-499.2L96 147.20000000000005zM960 166.39999999999998c0-6.4-6.4-19.2-12.8-19.2l-403.2-217.6L544 435.2l128 64 0-160c0-19.2 19.2-32 38.4-19.2l128 64c6.4 6.4 12.8 12.8 12.8 19.2l0 192L960 652.8 960 166.39999999999998z"  horiz-adv-x="1024" />

    
    <glyph glyph-name="shanchu" unicode="&#58899;" d="M512-96C246.896-96 32 118.896 32 384 32 649.104 246.896 864 512 864 777.104 864 992 649.104 992 384 992 118.896 777.104-96 512-96ZM728.832 600.832C716.704 612.96 697.024 612.96 684.896 600.832L512.896 428.832 340.864 600.864C328.784 612.944 309.2 612.944 297.12 600.864 285.056 588.784 285.056 569.2 297.12 557.12L469.168 385.088 297.104 213.04C284.976 200.912 284.976 181.248 297.104 169.104 309.248 156.976 328.912 156.976 341.04 169.104L513.088 341.168 683.2 171.056C695.28 158.992 714.848 158.992 726.928 171.056 739.008 183.136 739.008 202.72 726.928 214.8L556.832 384.896 728.832 556.896C740.96 569.024 740.96 588.704 728.832 600.832Z"  horiz-adv-x="1024" />

    
    <glyph glyph-name="see" unicode="&#59118;" d="M987.52 528.64c-108.16 146.56-266.88 239.36-444.16 239.36-177.28 0-335.36-92.8-444.16-239.36-48-64.64-48-160.64 0-225.28C208 156.79999999999995 366.72 64 543.36 64c177.28 0 335.36 92.8 444.16 239.36C1035.52 368 1035.52 464 987.52 528.64zM939.52 356.48C839.04 211.20000000000005 694.4 128 542.72 128c-151.68 0-296.32 83.2-396.8 228.48C121.6 390.4 121.6 440.96 145.92 475.52 246.4 620.8 391.04 704 542.72 704c151.68 0 296.32-83.2 396.8-228.48C963.2 440.96 963.2 390.4 939.52 356.48zM544 640C420.48 640 320 539.52 320 416S420.48 192 544 192 768 292.48 768 416 667.52 640 544 640zM544 256C455.68 256 384 327.67999999999995 384 416S455.68 576 544 576C632.32 576 704 504.32 704 416S632.32 256 544 256z"  horiz-adv-x="1024" />

    
    <glyph glyph-name="chakan2" unicode="&#59119;" d="M987.52 528.64c-108.16 146.56-266.88 239.36-444.16 239.36-177.28 0-335.36-92.8-444.16-239.36-48-64.64-48-160.64 0-225.28C208 156.8 366.72 64 543.36 64c177.28 0 335.36 92.8 444.16 239.36C1035.52 368 1035.52 464 987.52 528.64zM544 192C420.48 192 320 292.48 320 416S420.48 640 544 640C667.52 640 768 539.52 768 416S667.52 192 544 192zM544 576C455.68 576 384 504.32 384 416S455.68 256 544 256C632.32 256 704 327.68 704 416S632.32 576 544 576z"  horiz-adv-x="1024" />

    
    <glyph glyph-name="queren" unicode="&#59128;" d="M512 832C264.32 832 64 631.68 64 384s200.32-448 448-448c247.68 0 448 200.32 448 448S759.68 832 512 832zM512 0c-211.84 0-384 172.16-384 384s172.16 384 384 384c211.84 0 384-172.16 384-384S723.84 0 512 0zM709.76 567.68 472.32 334.08l-98.56 96c-12.8 12.8-33.28 12.8-46.08 0-12.8-12.8-12.8-33.28 0-45.44l121.6-119.04c12.8-12.8 33.28-12.8 46.08 0l260.48 256c12.8 12.8 12.8 33.28 0 45.44C743.68 580.48 722.56 580.48 709.76 567.68z"  horiz-adv-x="1024" />

    
    <glyph glyph-name="queren2" unicode="&#59129;" d="M512 832C264.32 832 64 631.68 64 384s200.32-448 448-448 448 200.32 448 448S759.68 832 512 832zM756.48 521.6l-260.48-256c-12.8-12.8-33.28-12.8-46.08 0l-121.6 119.04c-12.8 12.8-12.8 33.28 0 45.44 12.8 12.8 33.28 12.8 46.08 0l98.56-96 237.44 233.6c12.8 12.8 33.28 12.8 46.08 0C769.28 554.88 769.28 534.4 756.48 521.6z"  horiz-adv-x="1024" />

    
    <glyph glyph-name="hart1" unicode="&#59153;" d="M769.28 789.33333333C672.64 789.33333333 588.16 734.29333333 544 653.65333333 500.48 734.29333333 415.36 789.33333333 318.08 789.33333333c-140.8 0-254.72-114.56-254.72-256 0-67.2 25.6-128 67.84-174.08l391.04-392.96C528.64-39.466666669999995 536.32-42.66666667000004 544-42.66666667000004c7.68 0 15.36 3.2 21.76 8.96l391.04 392.96C998.4 404.69333333 1024 466.13333333 1024 533.33333333 1024 674.77333333 910.08 789.33333333 769.28 789.33333333zM908.16 400.85333333L544 30.933333329999982 179.84 400.85333333C147.2 435.41333333 127.36 482.13333333 127.36 533.33333333c0 106.24 85.76 192 190.72 192C403.2 725.33333333 476.8 669.01333333 502.4 591.57333333 508.8 574.93333333 525.44 562.77333333 544 562.77333333c19.2 0 35.2 11.52 42.24 28.16l0 0C611.2 669.01333333 684.16 725.33333333 769.28 725.33333333c105.6 0 190.72-85.76 190.72-192C960.64 482.13333333 940.8 435.41333333 908.16 400.85333333z"  horiz-adv-x="1024" />

    
    <glyph glyph-name="hart2" unicode="&#59154;" d="M769.28 789.33333333C672.64 789.33333333 588.16 734.29333333 544 653.65333333 500.48 734.29333333 415.36 789.33333333 318.08 789.33333333c-140.8 0-254.72-114.56-254.72-256 0-67.2 25.6-128 67.84-174.08l391.04-392.96C528.64-39.466666669999995 536.32-42.66666667000004 544-42.66666667000004c7.68 0 15.36 3.2 21.76 8.96l391.04 392.96C998.4 404.69333333 1024 466.13333333 1024 533.33333333 1024 674.77333333 910.08 789.33333333 769.28 789.33333333z"  horiz-adv-x="1024" />

    
    <glyph glyph-name="message" unicode="&#59316;" d="M832 832L192 832C121.6 832 64 774.4 64 704l0-512c0-70.4 57.6-128 128-128l128 0 132.096-120.448C459.072-61.63199999999995 466.88-64 474.432-64 493.824-64 512-48.70399999999995 512-26.49599999999998L512 64l320 0c70.4 0 128 57.6 128 128L960 704C960 774.4 902.4 832 832 832zM896 192c0-35.328-28.672-64-64-64L512 128c-16.96 0-33.28-6.72-45.248-18.752S448 80.96000000000004 448 64l0-30.08-84.864 77.376C351.296 122.048 335.936 128 320 128L192 128c-35.328 0-64 28.672-64 64L128 704c0 35.328 28.672 64 64 64l640 0c35.328 0 64-28.672 64-64L896 192zM736 576l-448 0C270.336 576 256 561.664 256 544S270.336 512 288 512l448 0C753.664 512 768 526.336 768 544S753.664 576 736 576zM736 384l-448 0C270.336 384 256 369.664 256 352S270.336 320 288 320l448 0C753.664 320 768 334.336 768 352S753.664 384 736 384z"  horiz-adv-x="1024" />

    
    <glyph glyph-name="code" unicode="&#58966;" d="M918.090878 628.317425c-36.099173 2.492774-72.380494 9.273201-103.496166 19.237133-10.075473 3.03001-20.161179 6.388501-30.306236 10.021238-21.385053 6.29845-50.481741 18.791995-83.506902 36.592406-0.354064 0.161682-0.704035 0.364297-1.052982 0.552585-7.763824 4.190439-15.706727 8.66331-23.793916 13.412474-10.898211 6.243191-21.689998 12.902868-32.462343 19.84293-0.417509 0.281409-0.829901 0.533143-1.237177 0.806365-7.738241 4.997827-15.443737 10.158361-23.092951 15.518438-4.976338 3.413749-9.959839 7.051603-14.945387 10.659781-3.748371 2.7486-7.496741 5.330402-11.248182 8.16496-27.427676 20.48659-54.499242 43.471071-79.849606 68.233034-25.350364-24.761963-52.426023-47.746444-79.853699-68.233034-3.744277-2.833535-7.498788-5.41636-11.246135-8.16496-4.991688-3.608178-9.970072-7.246031-14.945387-10.659781-7.652284-5.360078-15.356756-10.520611-23.094998-15.518438-0.405229-0.273223-0.824785-0.524956-1.232061-0.806365-10.780531-6.941086-21.564132-13.599739-32.464389-19.84293-8.090259-4.748141-16.030092-9.222035-23.798009-13.412474-0.345877-0.187265-0.704035-0.38988-1.046842-0.552585-33.025161-17.800411-62.127989-30.292933-83.515089-36.592406-10.138918-3.637854-20.216437-6.992251-30.302143-10.021238-31.118741-9.963932-67.390853-16.744359-103.496166-19.237133l-0.086981 0c1.052982-16.181541 2.13871-37.645388 3.403516-60.882626 0.200568 0 0.434905 0 0.669242 0.035816 6.091742-86.72827 23.472598-210.093972 49.694819-282.57782 1.174756-3.166109 2.172479-6.471388 3.347235-9.605775 0.550539-1.473561 1.196245-2.837628 1.750877-4.303003 62.763462-162.03849 171.776272-279.94076 302.786071-323.156004l0-0.450255c17.316387-5.716188 31.905664-9.249665 43.426045-11.467169 11.518335 2.223644 26.115797 5.750981 43.432185 11.467169l0 0.450255c131.011846 43.215244 240.017492 161.117514 302.788118 323.156004 0.554632 1.475608 1.198292 2.829442 1.757017 4.303003 1.166569 3.134387 2.168386 6.439666 3.339048 9.605775 26.227338 72.484871 43.60717 195.84955 49.700959 282.57782 0.236384-0.033769 0.473791-0.033769 0.669242-0.033769 1.26276 23.235191 2.343371 44.696991 3.3984 60.880579L918.090878 628.317425zM870.734314 586.4253160000001l-0.509606-9.497305c-0.51984-2.166339-0.86367-4.379751-1.02126-6.622838-5.674233-80.730673-21.61018-200.398146-47.276746-271.336802-0.710175-1.920746-1.375324-3.885494-2.034333-5.847172-0.411369-1.221828-0.816598-2.449795-1.445932-4.049223-0.524956-1.232061-1.036609-2.467191-1.38351-3.396353C758.704798 135.02960199999995 658.351206 26.565285000000017 541.728068-11.903864999999996c-1.886977-0.620124-3.708462-1.359974-5.458315-2.200108-7.915273-2.473331-15.665795-4.582365-23.177885-6.302543-7.460925 1.709945-15.179724 3.810792-23.077601 6.272867-1.77646 0.855484-3.626597 1.599428-5.544273 2.230808C367.840716 26.565285000000017 267.48917 135.02960199999995 209.243605 285.400355c-0.458441 1.206478-0.940418 2.37714-1.692548 4.14746-0.443092 1.178849-0.840134 2.394537-1.251503 3.610224-0.663102 1.963725-1.332345 3.931542-1.934049 5.560646-25.759687 71.198575-41.694611 190.869119-47.364751 271.582395-0.157589 2.251274-0.50142 4.473895-1.027399 6.644327l-0.497327 9.296737c-0.078795 1.493004-0.157589 2.974751-0.236384 4.446265 24.62177 3.805676 48.370661 9.30083 69.956282 16.21838 10.130731 3.045359 20.419052 6.435573 31.414477 10.353812 25.206078 7.576559 56.437383 21.220301 90.478687 39.532365 0.590448 0.302899 1.155313 0.603751 1.654686 0.877997 8.228405 4.439102 16.647145 9.182127 24.809035 13.975293 10.709923 6.132674 21.985734 13.023618 34.475186 21.064758 0.349971 0.224104 0.952698 0.611937 1.296529 0.846274 8.204869 5.300726 16.375969 10.776438 24.12035 16.205077 4.546549 3.114944 9.094122 6.402827 13.650905 9.699919l2.443655 1.769296 4.041036 2.912329c2.581802 1.847068 5.16258 3.699252 7.535627 5.495154 17.894555 13.369495 35.278481 27.453259 51.984978 42.119283 16.687054-14.650675 34.022884-28.704762 51.797713-41.980113 2.565429-1.936095 5.127787-3.776 7.691169-5.609765l4.27742-3.085268 1.552356-1.125637c4.77884-3.462868 9.56075-6.92369 13.94971-9.928117 8.117888-5.693676 16.301268-11.17348 23.730471-15.962553l2.059915-1.345648c12.386098-7.980765 23.663956-14.874779 34.072003-20.836561 8.576329-5.03262 16.994046-9.774621 25.015743-14.103206 0.399089-0.217964 0.950651-0.50756 1.534959-0.808412 34.167171-18.404162 65.523319-32.114418 90.813309-39.71963 11.014868-3.921309 21.271466-7.30129 30.587646-10.091846 22.11774-7.083326 46.068222-12.641925 70.781066-16.470113C870.888833 589.282387 870.812085 587.857944 870.734314 586.4253160000001zM711.261253 484.344383L476.928227 244.168278 356.968088 367.132844c-8.311293 8.515954-21.772886 8.515954-30.084179 0-8.311293-8.523117-8.311293-22.320355 0-30.839379l135.00274-138.378627c4.155646-4.260024 9.597589-6.390547 15.041578-6.390547 5.443989 0 10.886955 2.130524 15.040555 6.390547l249.374604 255.592212c8.311293 8.515954 8.311293 22.316262 0 30.837332C733.034139 492.862383 719.571523 492.862383 711.261253 484.344383z"  horiz-adv-x="1024" />

    
    <glyph glyph-name="position" unicode="&#58910;" d="M512-63.469288000000006c-10.69969 0-16.60519 1.283226-20.36584 5.689582-2.261507 2.64934-229.644237 272.535093-290.237267 403.232784-21.890566 46.818305-33.44267 97.655134-33.44267 147.265018 0 187.090049 154.331971 339.226005 344.045777 339.226005s344.045777-153.187915 344.045777-341.429183c0-56.871265-10.660804-99.841939-36.789904-148.300604C747.006362 208.324932 534.795169-54.61871299999996 532.675902-57.242470000000026c-2.532683-3.166109-7.055696-6.227842-20.145829-6.227842L512-63.47031100000004zM512 623.596913c-72.959685 0-132.325771-59.365062-132.325771-132.325771S439.040315 358.945371 512 358.945371s132.325771 59.365062 132.325771 132.325771S584.959685 623.596913 512 623.596913z"  horiz-adv-x="1024" />

    
    <glyph glyph-name="weixin" unicode="&#58926;" d="M693.12 548.736c11.776 0 23.36-0.896 35.008-2.176-31.36 146.048-187.456 254.528-365.696 254.528C163.2 801.088 0 665.344 0 492.864c0-99.52 54.272-181.248 145.024-244.736L108.8 139.136l126.72 63.488c45.312-8.896 81.664-18.112 126.912-18.112 11.392 0 22.656 0.512 33.792 1.344-7.04 24.256-11.2 49.6-11.2 76.032C385.088 420.224 521.024 548.736 693.12 548.736zM498.304 646.976c27.392 0 45.376-17.984 45.376-45.248 0-27.136-17.984-45.312-45.376-45.312-27.072 0-54.336 18.176-54.336 45.312C443.968 629.056 471.168 646.976 498.304 646.976zM244.672 556.416c-27.2 0-54.592 18.176-54.592 45.312 0 27.264 27.392 45.248 54.592 45.248S289.92 629.056 289.92 601.728C289.92 574.592 271.872 556.416 244.672 556.416zM1024 266.24c0 144.896-145.024 262.976-307.904 262.976-172.48 0-308.224-118.144-308.224-262.976 0-145.28 135.808-262.976 308.224-262.976 36.096 0 72.512 9.024 108.736 18.112l99.392-54.528-27.264 90.624C969.728 112.128 1024 184.512 1024 266.24zM616.128 311.616c-17.984 0-36.224 17.92-36.224 36.224 0 18.048 18.24 36.224 36.224 36.224 27.52 0 45.376-18.176 45.376-36.224C661.504 329.536 643.648 311.616 616.128 311.616zM815.488 311.616c-17.856 0-36.032 17.92-36.032 36.224 0 18.048 18.112 36.224 36.032 36.224 27.264 0 45.376-18.176 45.376-36.224C860.864 329.536 842.752 311.616 815.488 311.616z"  horiz-adv-x="1024" />

    
    <glyph glyph-name="order-receive" unicode="&#59057;" d="M1024 672.672L1024 799.328C1024 852.64 980.928 896 928 896L96 896C43.072 896 0 852.64 0 799.328l0-126.624C0 619.36 43.072 576 96 576l0.512 0 0-513.984c0-36.224 30.048-65.696 67.008-65.696l335.808 0C551.328-78.68799999999999 637.984-128 736-128c158.816 0 288 129.184 288 288 0 84.768-37.024 160.864-95.488 213.6L928.512 576.0640000000001C981.184 576.3199999999999 1024 619.552 1024 672.672zM64 672.672L64 799.328C64 817.376 78.336 832 96 832l832 0c17.664 0 32-14.624 32-32.672l0-126.624C960 654.624 945.664 640 928 640L96 640C78.336 640 64 654.624 64 672.672zM960 160c0-123.712-100.288-224-224-224s-224 100.288-224 224 100.288 224 224 224c51.744 0 99.232-17.696 137.152-47.168 1.76-1.92 3.936-3.264 6.144-4.704C928.576 291.03999999999996 960 229.216 960 160zM736 448c-158.816 0-288-129.184-288-288 0-35.072 6.624-68.544 18.144-99.648L163.488 60.351999999999975c-1.952 0-3.008 1.184-3.008 1.696L160.48 572.288l704-0.864 0-154.08C825.76 436.8 782.208 448 736 448zM768.256 320c0 17.696-14.304 32-32 32s-32-14.304-32-32l0-160c0-17.696 14.304-32 32-32l160 0c17.696 0 32 14.304 32 32s-14.304 32-32 32l-128 0L768.256 320z"  horiz-adv-x="1024" />

    
    <glyph glyph-name="weibo" unicode="&#58942;" d="M757.142721 394.599406c-39.591717 7.653307-20.312628 28.559453-20.312628 28.559453s38.734186 63.074547-7.748475 108.983133c-57.487296 56.781214-197.431581-7.147794-197.431581-7.147794-53.370535-16.314571-39.249933 7.482415-31.680537 47.948035 0 47.772027-16.524348 128.522142-158.877497 80.923054C198.914864 605.750453 76.868203 437.612035 76.868203 437.612035-7.990486 325.91714 3.20039 239.552144 3.20039 239.552144c21.168112-190.756555 226.526223-243.119133 386.265344-255.530814 168.005388-12.925381 394.875442 57.126069 463.552591 201.294562C921.87353 329.658348 796.904307 386.778276 757.142721 394.599406L757.142721 394.599406 757.142721 394.599406zM401.854902 37.745928c-166.79891-7.649214-301.746392 74.803683-301.746392 184.631044 0 110.0003 134.947482 198.066031 301.746392 205.720362 166.972872 7.648191 302.098409-60.3546 302.098409-170.011068C703.952288 148.42468 568.827775 45.22732 401.854902 37.745928L401.854902 37.745928 401.854902 37.745928zM368.636337 355.83452C200.803887 336.456171 220.253868 181.402769 220.253868 181.402769s-1.718131-49.133024 44.930305-74.125231c98.114598-52.534494 199.326744-20.739347 250.279207 44.37465C566.587758 216.595292 536.642748 375.051187 368.636337 355.83452L368.636337 355.83452 368.636337 355.83452zM326.291926 138.051425c-31.329543-3.568269-56.631812 14.286378-56.631812 40.127929 0 25.669636 22.372543 52.702316 53.702086 55.930847 35.980469 3.400446 59.387575-17.003256 59.387575-43.012629C382.923738 165.421796 357.447507 141.620717 326.291926 138.051425L326.291926 138.051425 326.291926 138.051425zM425.268148 221.186867c-10.673084-7.816013-23.750937-6.79987-29.265534 2.716878-5.847172 9.188266-3.613294 23.810289 7.059789 31.456433 12.394285 9.184173 25.303292 6.459109 30.981618-2.717901C439.558619 243.461173 435.596378 229.352851 425.268148 221.186867L425.268148 221.186867 425.268148 221.186867zM838.903863 461.752852c13.596669 0 24.959461 9.862625 27.027563 22.780843 0.171915 1.023306 0.336668 1.871627 0.336668 2.894933 20.48966 181.740204-150.95506 150.455687-150.95506 150.455687-15.146978 0-27.370371-12.06785-27.370371-27.370371 0-14.963807 12.223393-27.031657 27.370371-27.031657 123.07406 26.864858 96.051613-94.691639 96.051613-94.691639C811.194778 473.826841 823.585993 461.752852 838.903863 461.752852L838.903863 461.752852 838.903863 461.752852zM818.939159 778.997216c-59.214636 13.769608-120.323413 1.868557-137.364531-1.354857-1.379417-0.172939-2.579755-1.36816-3.78521-1.533936-0.51677-0.172939-1.033539-0.677429-1.033539-0.677429-16.865109-4.764514-29.089525-20.060895-29.089525-38.255279 0-21.589714 17.724687-39.438221 39.932478-39.438221 0 0 21.516036 2.888793 36.152385 8.498558 14.452153 5.77554 137.355321 4.246721 198.287065-96.737228 33.232892-73.785493 14.637372-123.091456 12.229532-131.079384 0 0-7.92039-19.215644-7.92039-38.08234 0-21.762653 17.73185-35.536354 39.932478-35.536354 18.421558 0 33.913391 2.550079 38.388309 33.32192l0.171915 0C1070.594713 653.527596 924.969031 754.684484 818.939159 778.997216L818.939159 778.997216 818.939159 778.997216z"  horiz-adv-x="1024" />

    
    <glyph glyph-name="angle-right" unicode="&#58898;" d="M332.31874999-53.793750000000045l437.45625 437.45625L331.64374999 821.79375 291.87499999 782.025l398.3625-398.3625-397.6875-397.6875z"  horiz-adv-x="1024" />

    
    <glyph glyph-name="angle-left" unicode="&#58900;" d="M691.83125-53.793750000000045L254.375 383.6625 692.50625 821.79375l39.76875-39.76875-398.3625-398.3625 397.6875-397.6875z"  horiz-adv-x="1024" />

    
    <glyph glyph-name="unchecked" unicode="&#58918;" d="M120.470588 718.305882v-662.588235c0-30.117647 24.094118-60.235294 60.235294-60.235294h662.588236c30.117647 0 60.235294 24.094118 60.235294 60.235294v662.588235c0 30.117647-24.094118 60.235294-60.235294 60.235294h-662.588236c-36.141176 0-60.235294-30.117647-60.235294-60.235294z m-60.235294 0c0 66.258824 54.211765 120.470588 120.470588 120.470589h662.588236c66.258824 0 120.470588-54.211765 120.470588-120.470589v-662.588235c0-66.258824-54.211765-120.470588-120.470588-120.470588h-662.588236c-66.258824 0-120.470588 54.211765-120.470588 120.470588v662.588235z"  horiz-adv-x="1024" />

    
    <glyph glyph-name="checked" unicode="&#58919;" d="M849.317647 561.694118l-48.188235 48.188235-409.6-415.623529-168.658824 168.658823-48.188235-42.164706 216.847059-216.847059zM120.470588 718.305882v-662.588235c0-30.117647 24.094118-60.235294 60.235294-60.235294h662.588236c30.117647 0 60.235294 24.094118 60.235294 60.235294v662.588235c0 30.117647-24.094118 60.235294-60.235294 60.235294h-662.588236c-36.141176 0-60.235294-30.117647-60.235294-60.235294z m-60.235294 0c0 66.258824 54.211765 120.470588 120.470588 120.470589h662.588236c66.258824 0 120.470588-54.211765 120.470588-120.470589v-662.588235c0-66.258824-54.211765-120.470588-120.470588-120.470588h-662.588236c-66.258824 0-120.470588 54.211765-120.470588 120.470588v662.588235z"  horiz-adv-x="1024" />

    
    <glyph glyph-name="cart" unicode="&#58892;" d="M870.4 179.20000000000005H204.8a51.2 51.2 0 0 0-51.2 51.2V793.6H0V896h204.8a51.2 51.2 0 0 0 51.2-51.2v-563.2h574.4128l76.8 307.2H358.4V691.2h614.4a51.2 51.2 0 0 0 49.6384-63.616l-102.4-409.6A51.2 51.2 0 0 0 870.4 179.20000000000005zM153.6-25.600000000000023a102.4 102.4 0 1 0 102.4-102.4 102.4 102.4 0 0 0-102.4 102.4z m563.2 0a102.4 102.4 0 1 0 102.4-102.4 102.4 102.4 0 0 0-102.4 102.4z"  horiz-adv-x="1024" />

    
    <glyph glyph-name="lock" unicode="&#59113;" d="M800-64H224c-52.8 0-96 43.2-96 96V416c0 52.8 43.2 96 96 96h576c52.8 0 96-43.2 96-96v-384c0-52.8-43.2-96-96-96zM224 448c-17.6 0-32-14.4-32-32v-384c0-17.6 14.4-32 32-32h576c17.6 0 32 14.4 32 32V416c0 17.6-14.4 32-32 32H224z m528 32c-17.6 0-32 14.4-32 32V624c0 115.2-92.8 208-208 208s-208-92.8-208-208v-112c0-17.6-14.4-32-32-32s-32 14.4-32 32V624C240 774.4 361.6 896 512 896s272-121.6 272-272v-112c0-17.6-14.4-32-32-32z"  horiz-adv-x="1024" />

    
    <glyph glyph-name="tip" unicode="&#58920;" d="M512.699863 653.347393c124.275727 0 225.355985-101.080258 225.355985-225.355985S636.975591 202.63542299999995 512.699863 202.63542299999995 287.343878 303.715681 287.343878 427.991408s101.080258 225.355985 225.355985 225.355985m0 56.388987C357.130248 709.73638 231.054872 583.561023 231.054872 427.991408c0-155.569615 126.175356-281.744972 281.744972-281.744972 155.569615 0 281.744972 126.175356 281.744971 281.744972-0.09998 155.569615-126.175356 281.744972-281.844952 281.744972zM319.737551 61.36301500000002h385.924624v-56.388986h-385.924624zM377.526264-71.61101299999996H647.973443v-56.388987H377.526264zM483.005663 895.90002h56.388986v-112.578013H483.005663zM162.808202 739.182628l39.872212 39.872213 79.604452-79.604452-39.872212-39.872213zM47.290764 458.285491h112.578012v-56.388986H47.290764zM864.431166 460.08514h112.578012v-56.388987H864.431166zM740.699332 700.705144l79.604452 79.604452 39.872213-39.872213-79.604452-79.604452z"  horiz-adv-x="1024" />

    
    <glyph glyph-name="order-complete" unicode="&#58982;" d="M512 896a512 512 0 1 1 512-512 512 512 0 0 1-512 512z m0-960a448 448 0 1 0 448 448 448 448 0 0 0-448-448zM718.08 566.4l-293.76-294.4-120.96 120.96a32 32 0 0 1-47.36-45.44l143.36-143.36a32 32 0 0 1 45.44 0l316.8 316.8a32 32 0 0 1-45.44 45.44z"  horiz-adv-x="1026" />

    
    <glyph glyph-name="warning" unicode="&#59235;" d="M512 832C264.6 832 64 631.4 64 384s200.6-448 448-448 448 200.6 448 448S759.4 832 512 832z m43.3-652c-9.3-9.1-20-14.6-31.9-16.7-3.8-0.2-7.5-0.3-11.4-0.3s-7.6 0.1-11.4 0.3c-12 2.1-22.6 7.7-31.9 16.7-12.1 11.9-18.1 26.1-18.1 43 0 16.7 6 31.2 18.1 43.3 12.1 12.1 26.6 18.2 43.3 18.2 16.7 0 31.2-6.1 43.3-18.2 12.1-12.1 18.1-26.6 18.1-43.3 0.1-16.8-5.9-31.2-18.1-43z m-13.9 141.3h-57.7c-7 85.4-33 202.8-33 218.8 0 18.3 5.7 33.7 17.2 46.1 11.6 12.5 26.2 18.8 44.2 18.8 17.9 0 32.6-6.2 44.2-18.5 11.5-12.4 17.2-27.8 17.2-46.4 0-16-24-133.4-32.1-218.8z"  horiz-adv-x="1024" />

    
    <glyph glyph-name="guanbi" unicode="&#58888;" d="M583.168 372.224L958.464 747.52c18.944 18.944 18.944 50.176 0 69.12l-2.048 2.048c-18.944 18.944-50.176 18.944-69.12 0L512 442.88 136.704 818.688c-18.944 18.944-50.176 18.944-69.12 0l-2.048-2.048c-19.456-18.944-19.456-50.176 0-69.12l375.296-375.296L65.536-3.072c-18.944-18.944-18.944-50.176 0-69.12l2.048-2.048c18.944-18.944 50.176-18.944 69.12 0L512 301.056 887.296-74.24c18.944-18.944 50.176-18.944 69.12 0l2.048 2.048c18.944 18.944 18.944 50.176 0 69.12L583.168 372.224z"  horiz-adv-x="1024" />

    
    <glyph glyph-name="hy" unicode="&#59210;" d="M512.836041-35.49107300000003a71.730695 71.730695 0 0 0-53.982472 24.490787l-376.269689 429.79986c-19.507286 22.288632-22.852474 54.604642-8.29492 80.401168 0 0.008186 0.017396 0.008186 0.017396 0.017396L226.046293 767.950625c12.356422 21.914102 35.68678 35.541471 60.860112 35.541471h449.759448c25.190729 0 48.521087-13.636578 60.893882-35.584449l152.166655-270.02083c14.523785-25.770943 11.195993-58.043974-8.242732-80.316234L566.81749-10.974702999999977a71.720462 71.720462 0 0 0-53.981449-24.51637z m-1.297552 70.52831c0.460488 0.008186 2.679016 0.033769 2.645246 0l374.648773 428.52789-152.166655 270.02083H286.906405L135.183865 464.862679l376.287086-429.825442h0.067538z m-376.37202 429.808046v0.008186-0.008186zM721.685673 497.65248H302.253952v52.429093c0 19.303648 15.648398 34.95307 34.95307 34.95307h349.526605c19.303648 0 34.95307-15.648398 34.953069-34.95307v-52.429093z"  horiz-adv-x="1024" />

    
    <glyph glyph-name="dw" unicode="&#59217;" d="M511.614214-62.70897100000002c-21.76163 0-41.744753 9.781784-54.865586 26.862811L222.50156 269.473617c-3.540639 4.044106-5.872754 7.978718-7.349385 10.461259-41.72838 58.515718-63.959707 127.685078-63.959707 199.699228 0.87288 193.650465 162.903184 351.075891 361.209691 351.075891 198.726064 0 360.40435-157.49194 360.40435-351.075891-0.839111-72.190159-23.070438-140.856052-64.345494-199.053522-1.962701-3.288906-4.312212-7.189749-7.735171-11.098779L566.479799-35.84718399999997c-13.120832-17.080004-33.103956-26.861788-54.865585-26.861787zM273.525654 315.48044000000004a33.707706 33.707706 0 0 0 2.63399-3.037173L511.278569 5.990689999999972 747.068783 312.443267c0.435928 0.569982 0.889253 1.124614 1.358951 1.669013l2.51631 4.102434c0.285502 0.453325 0.587378 0.89744 0.889253 1.325182 33.507138 46.921659 51.577702 102.416578 52.248991 160.487158 0 155.294902-130.839931 281.95565-291.679105 281.95565-160.571069 0-291.780413-126.72931-292.484448-282.501073 0-57.450457 17.802458-112.811322 51.460022-159.933549l2.90312-4.580318c0.418532-0.73678-0.186242-0.032746-0.756223 0.512676z m476.059439-0.100284v0z m0.066515 0.058329c-0.016373-0.016373-0.033769-0.025583-0.033769-0.041956 0.001023 0.016373 0.017396 0.025583 0.033769 0.041956z m0.051166 0.041955a0.227174 0.227174 0 0 1-0.050142-0.041955c0.016373 0.016373 0.032746 0.033769 0.050142 0.041955zM512 318.793906c-90.000803 0-163.222455 73.221652-163.222455 163.222455s73.221652 163.222455 163.222455 163.222455S675.222455 572.017164 675.222455 482.016361s-73.222675-163.222455-163.222455-163.222455z m0 240.538355c-42.634006 0-77.3159-34.68087-77.3159-77.3159s34.68087-77.3159 77.3159-77.3159 77.3159 34.681894 77.3159 77.3159-34.681894 77.3159-77.3159 77.3159z"  horiz-adv-x="1024" />

    
    <glyph glyph-name="aq" unicode="&#59219;" d="M700.652638-11.198806999999988H323.357596c-24.699542 0-47.671743 13.205766-59.97086 34.465976L74.462922 349.73561500000005c-12.232602 21.126156-12.232602 47.402613 0.016373 68.554352l188.907441 326.442864c12.300141 21.252023 35.287691 34.465976 59.97086 34.465976H700.651614c24.6494 0 47.621601-13.19758 59.954487-34.440393l188.94121-326.493006c12.216229-21.142529 12.216229-47.38624 0-68.512397l-188.923814-326.485842c-12.332886-21.268396-35.305087-34.465976-59.970859-34.465976zM323.357596 710.468446L133.964084 383.832178 322.887898 57.69937600000003l-29.750581-17.216104 29.750581 17.207917c0-0.008186 0.151449-0.159636 0.469698-0.159635H700.651614l189.393511 326.636268L701.122335 710.300624l-377.764739 0.167822zM511.99693 220.76628800000003c-90.006943 0-163.233712 73.226768-163.233711 163.233712S421.989987 547.233712 511.99693 547.233712s163.233712-73.226768 163.233712-163.233712-73.226768-163.233712-163.233712-163.233712z m0 240.555752c-42.637076 0-77.321016-34.68394-77.321016-77.321017s34.68394-77.321016 77.321016-77.321016 77.321016 34.68394 77.321016 77.321016-34.68394 77.321016-77.321016 77.321017z"  horiz-adv-x="1024" />

    
    <glyph glyph-name="phone" unicode="&#58931;" d="M727.54062222 809.25582222c19.22389333 0 34.95253333-15.72864 34.95253333-34.95253333v-780.60657778c0-19.22389333-15.72864-34.95253333-34.95253333-34.95253333H296.45937778c-19.22389333 0-34.95253333 15.72864-34.95253333 34.95253333V774.30328889c0 19.22389333 15.72864 34.95253333 34.95253333 34.95253333h431.08124444m0 69.90506667H296.45937778c-57.67168 0-104.8576-47.18592-104.8576-104.8576v-780.60657778c0-57.67168 47.18592-104.8576 104.8576-104.8576h431.08124444c57.67168 0 104.8576 47.18592 104.8576 104.8576V774.30328889c0 57.67168-47.18592 104.8576-104.8576 104.8576zM765.40586667 106.12735999999995H258.59413333c-36.70016 0-66.99235555-29.70965333-66.99235555-66.99235555v-50.68117334c0-36.70016 29.70965333-66.99235555 66.99235555-66.99235556h506.81173334c36.70016 0 66.99235555 29.70965333 66.99235555 66.99235556v50.68117334c0 37.28270222-30.29219555 66.99235555-66.99235555 66.99235555z m-254.57095112-136.89742222c-29.12711111 0-53.01134222 23.88423111-53.01134222 53.01134222s23.88423111 53.01134222 53.01134222 53.01134222 53.01134222-23.88423111 53.01134223-53.01134222-23.88423111-53.01134222-53.01134223-53.01134222z"  horiz-adv-x="1024" />

    
    <glyph glyph-name="dianzan" unicode="&#59161;" d="M934.4 528c-22.4 25.6-54.4 38.4-89.6 38.4h-310.4v128c0 76.8-67.2 137.6-147.2 137.6h-51.2c-19.2 0-32-12.8-32-32v-51.2c3.2-89.6 3.2-166.4-41.6-169.6-9.6 0-32-3.2-41.6-6.4H96c-19.2 0-32-12.8-32-32v-576c0-19.2 12.8-32 32-32h656c57.6 0 105.6 44.8 112 102.4 6.4 54.4 25.6 124.8 44.8 198.4 22.4 76.8 44.8 160 51.2 220.8 3.2 25.6-6.4 51.2-25.6 73.6zM192 0H128V512h64v-512z m656 252.8c-19.2-73.6-41.6-147.2-48-204.8-3.2-22.4-19.2-48-51.2-48H256V515.2h9.6c112 6.4 105.6 144 102.4 236.8V768h19.2c44.8 0 83.2-32 83.2-73.6v-160c0-19.2 12.8-32 32-32h342.4c16 0 32-6.4 41.6-16 3.2-3.2 9.6-12.8 9.6-22.4-6.4-57.6-28.8-134.4-48-211.2z"  horiz-adv-x="1024" />

    
    <glyph glyph-name="search" unicode="&#59079;" d="M819.09333312 137.59999969l160.21333313-160.23999938a42.69333375 42.69333375 0 0 0 0-60.74666719 43.25333344 43.25333344 0 0 0-30.37333313-12.61333312 43.25333344 43.25333344 0 0 0-30.37333312 12.61333312L758.40000031 76.79999999999995a444.10666687 444.10666687 0 0 0-596.26666687 28.90666687A444.21333375 444.21333375 0 0 0 476.16000031 864C721.44000031 864 920.26666625 665.14666687 920.26666625 419.81333344c0-105.19999969-37.12000031-204.31999969-101.19999937-282.24zM476.16000031 778.00000031c-197.70666656-0.31999969-357.86666625-160.50666656-358.18666687-358.21333406 0-197.81333344 160.37333344-358.21333313 358.18666687-358.21333313s358.15999969 160.39999969 358.15999969 358.21333313c0 197.83999969-160.34666625 358.21333313-358.15999969 358.21333406z"  horiz-adv-x="1024" />

    
    <glyph glyph-name="question" unicode="&#58997;" d="M811.7 98c71.5 74.4 115.6 175.1 115.6 286.4 0 228.8-185.8 414.3-415 414.3s-415-185.4-415-414.3c0-226.6 182.3-410.4 408.4-414l-0.3-0.3H803c0.3 0.1 61.9-0.8 86.6-1.2 4.3-0.1 6.9 4.7 4.5 8.2-15.6 23.4-60.1 90.4-82.4 120.9z m-295.6 16.8c-33.9 0-59.8 23.2-59.8 58.4s25.9 57.8 59.8 57.8 60.4-22.6 60.4-57.8c0-35.1-26.5-58.4-60.4-58.4z m33.2 169.4h-67.7c-18 109.6 111.5 137.5 111.5 209.8 0 39.8-24.6 67.7-73 67.7-35.2 0-66.4-16.6-96.3-49.1L380 553.1c38.5 42.5 85.7 71.7 148.7 71.7 82.3 0 138.1-45.8 138.1-124.8 0-100.9-131.4-118.2-117.5-215.8z"  horiz-adv-x="1024" />

    
    <glyph glyph-name="wjx02" unicode="&#58921;" d="M512 764.23243852l101.4918009-205.57267793a103.56306132 103.56306132 0 0 1 77.67229629-56.7007763l227.06201244-33.14017894-164.4063609-160.00493037a103.56306132 103.56306132 0 0 1-29.77437984-91.91221809l38.57724089-226.02638223-202.98360179 106.66995439a103.56306132 103.56306132 0 0 1-96.3136474 0l-203.24250784-106.66995439 38.83614815 226.02638223a103.56306132 103.56306132 0 0 1-29.77438106 91.91221809L105.51498311 469.07771259l226.8031052 32.8812717a103.56306132 103.56306132 0 0 1 77.6722963 56.7007763L512 764.23243852m0 51.78153126a51.78153127 51.78153127 0 0 1-46.60337778-28.73874962l-101.4918009-205.57267794a51.78153127 51.78153127 0 0 0-39.0950554-28.47984238L97.74775349 520.34142815a51.78153127 51.78153127 0 0 1-28.47984238-88.54641778l164.14745244-160.26383762a51.78153127 51.78153127 0 0 0 15.01664476-45.82665481L209.59586016 0.19595021999998607a51.78153127 51.78153127 0 0 1 51.78153006-60.84329837 53.07606873 53.07606873 0 0 1 24.33732031 6.21378371L487.92158815 51.977481489999946a51.78153127 51.78153127 0 0 0 48.1568237 0l202.98360059-106.66995318a53.07606873 53.07606873 0 0 1 24.33732031-6.2137837 51.78153127 51.78153127 0 0 1 51.78153006 60.84329836l-38.83614815 226.02638222a51.78153127 51.78153127 0 0 0 15.01664475 45.82665481l164.14745244 160.26383762A51.78153127 51.78153127 0 0 1 926.25224651 520.34142815l-226.80310519 32.88127169a51.78153127 51.78153127 0 0 0-39.0950554 28.47984238L558.60337778 787.27522016A51.78153127 51.78153127 0 0 1 512 816.01396978z"  horiz-adv-x="1024" />

    
    <glyph glyph-name="wjx01" unicode="&#58923;" d="M555.4681683 787.27522016l101.49179969-205.57267794a51.78153127 51.78153127 0 0 1 39.09505661-28.47984238L923.11703703 520.34142815a51.78153127 51.78153127 0 0 0 28.73874964-88.54641778l-164.14745244-160.26383762a51.78153127 51.78153127 0 0 1-15.01664476-45.82665481L811.26893037 0.19595021999998607a51.78153127 51.78153127 0 0 0-75.3421274-54.62951466L532.94320238 51.977481489999946a51.78153127 51.78153127 0 0 1-48.15682371 0l-202.9836018-106.66995318A51.78153127 51.78153127 0 0 0 206.46064947 0.19595021999998607l38.83614814 226.02638222a51.78153127 51.78153127 0 0 1-15.01664354 45.82665482L66.13270163 431.79501037A51.78153127 51.78153127 0 0 0 94.61254281 520.34142815l226.80310518 32.88127169a51.78153127 51.78153127 0 0 1 39.09505661 28.47984238L462.26141275 787.27522016a51.78153127 51.78153127 0 0 0 93.20675555 0z"  horiz-adv-x="1024" />

    
    <glyph glyph-name="order-unpay" unicode="&#58933;" d="M512 815.08124445c237.70052835 0 431.08124445-193.38071609 431.08124445-431.08124445s-193.38071609-431.08124445-431.08124445-431.08124445-431.08124445 193.38071609-431.08124445 431.08124445 193.38071609 431.08124445 431.08124445 431.08124445m0 81.5559111c-283.12134542 0-512.63715555-229.51581013-512.63715555-512.63715555s229.51581013-512.63715555 512.63715555-512.63715555 512.63715555 229.51581013 512.63715555 512.63715555-229.51581013 512.63715555-512.63715555 512.63715555zM640.28162275 666.591232a40.64397085 40.64397085 0 0 1-28.83584-11.94211555L512 555.20333369 412.55421725 654.6491164500001a40.65562169 40.65562169 0 0 1-28.83584 11.94211555 40.77795555 40.77795555 0 0 1-28.83584-69.60797013L442.68330098 509.18832355H325.58648889a40.77795555 40.77795555 0 1 1 0-81.5559111h145.63555556v-75.7304889H325.58648889a40.77795555 40.77795555 0 1 1 0-81.5559111h145.63555556v-151.46097778a40.77795555 40.77795555 0 1 1 81.5559111 0v151.46097778h145.63555556a40.77795555 40.77795555 0 1 1 0 81.5559111h-145.63555556v75.7304889h145.63555556a40.77795555 40.77795555 0 1 1 0 81.5559111h-117.09681209l87.79493831 87.79493832a40.77795555 40.77795555 0 0 1-28.83001458 69.60797013z"  horiz-adv-x="1024" />

    
    <glyph glyph-name="kefu" unicode="&#58917;" d="M911.36455111 575.07726222c-22.39032889 43.64970667-54.34026667 82.76536889-94.96348444 116.26154667-82.59811555 68.10737778-192.13425778 105.61536-308.43107556 105.61536s-225.83182222-37.50912-308.43107556-105.61536c-40.62321778-33.49617778-72.57315555-72.61297778-94.96462222-116.26154667-23.38588445-45.59075555-35.24380445-94.07260445-35.24380444-144.09728s11.85792-98.50311111 35.24380444-144.09500444c22.39146667-43.64970667 54.34140445-82.76650667 94.96462222-116.26268445 82.59925333-68.10737778 192.13425778-105.61536 308.43107556-105.61536 33.10478222 0 66.02183111 3.08110222 98.04458667 9.17048889 23.86830222-21.17063111 78.51235555-60.95530667 165.76853333-77.00024889l50.82794667-9.34570666-25.00949333 45.22552888c-21.37770667 38.65713778-32.91591111 72.35584-39.14410667 97.36419556 53.84419555 31.28888889 99.01511111 72.56405333 131.36440889 120.19143111 37.15072 54.69752889 56.78648889 117.06709333 56.78648888 180.36849778 0 50.02353778-11.85792 98.50424889-35.24380444 144.09614222zM340.85546667 396.09457778l-38.01656889 21.24458667-37.15754667-22.77262223c-6.56839111 11.40849778-10.50851555 25.89582222-10.50851556 41.67566223 0 36.76387555 21.34016 66.56682667 47.66606223 66.56682666 26.32476445 0 47.66492445-29.80295111 47.66492444-66.56682666 0-15.08238222-3.59537778-28.98602667-9.64835555-40.14762667z m220.24760888 0l-38.01770666 21.24458667-37.15754667-22.77262223c-6.56839111 11.40849778-10.50851555 25.89582222-10.50851555 41.67566223 0 36.76387555 21.34016 66.56682667 47.66492444 66.56682666s47.66492445-29.80295111 47.66492444-66.56682666c0.00227555-15.08238222-3.59310222-28.98602667-9.64608-40.14762667z"  horiz-adv-x="1024" />

    
    <glyph glyph-name="safe" unicode="&#58893;" d="M895.744 622.72a59.2 59.2 0 0 1-46.72 51.936A1103.36 1103.36 0 0 0 697.92 709.44a561.28 561.28 0 0 0-135.008 78.912 61.76 61.76 0 0 1-72.16 0 354.112 354.112 0 0 0-136.032-78.4 507.264 507.264 0 0 0-146.944-36.32 55.04 55.04 0 0 1-46.208-51.936S160 491.36 160 376.64C160 168.96000000000004 405.056-32 527.616-32c122.528 0 330.24 141.76 363.456 405.504 8.32 155.776 2.56 248.704 2.56 248.704l2.112 0.544z m-133.44-160.416l-256-241.44c-11.52-10.976-29.12-12.704-42.56-4.16l-6.72 5.728-141.248 146.912a35.264 35.264 0 0 0 51.904 47.776L484 295.10400000000004l230.528 218.08a35.264 35.264 0 1 0 47.776-51.936v1.056z"  horiz-adv-x="1024" />

    
    <glyph glyph-name="down-time" unicode="&#58889;" d="M512 832C264.6 832 64 631.4 64 384s200.6-448 448-448 448 200.6 448 448S759.4 832 512 832z m0-820c-205.4 0-372 166.6-372 372s166.6 372 372 372 372-166.6 372-372-166.6-372-372-372zM686.7 257.4L544.1 360.5V608c0 4.4-3.6 8-8 8H488c-4.4 0-8-3.6-8-8v-275.4c0-2.6 1.2-5 3.3-6.5l165.4-120.6c3.6-2.6 8.6-1.8 11.2 1.7l28.6 39c2.6 3.7 1.8 8.7-1.8 11.2z"  horiz-adv-x="1024" />

    
    <glyph glyph-name="footer01" unicode="&#58882;" d="M249.733837 496.2304l198.0416 100.39296 63.42656-79.81056-194.56-97.81248-66.90816 77.2096zM480.215757 215.03999999999996l29.30688 75.53024v-175.06304l-205.2096 94.0032 0.65536 93.0816 175.24736-87.552z m-198.49216 111.77984l34.75456 91.83232 194.56-91.83232-34.7136-96.95232-194.60096 96.95232zM1024.000717 384c0-136.76544-53.248-265.3184-149.97504-362.02496C777.360077-74.75199999999995 648.745677-128 512.000717-128c-136.76544 0-265.33888 53.248-362.02496 149.97504C53.248717 118.6816 0.000717 247.23456 0.000717 384c0 136.76544 53.248 265.3184 149.97504 362.02496C246.641357 842.752 375.235277 896 512.000717 896c45.568 0 90.78784-5.98016 134.36928-17.8176a20.48 20.48 0 1 0-10.73152-39.5264A472.4736 472.4736 0 0 1 512.000717 855.04C252.273357 855.04 40.960717 643.72736 40.960717 384s211.31264-471.04 471.04-471.04 471.04 211.31264 471.04 471.04c0 99.328-30.5152 194.27328-88.28928 274.6368a20.48 20.48 0 1 0 33.23904 23.90016A508.3136 508.3136 0 0 0 1024.000717 384z m-509.46048 132.8128l66.00704 79.81056 193.7408-102.11328-63.42656-75.50976-196.32128 97.81248z m206.72512-214.8352v-92.4672l-204.55424-93.98272V290.61120000000005l27.17696-75.71456 177.37728 87.10144z m-205.86496 24.86272l195.46112 91.83232 39.1168-90.9312-201.56416-97.01376-33.01376 96.11264z"  horiz-adv-x="1024" />

    
    <glyph glyph-name="footer03" unicode="&#58880;" d="M762.553191-58.280850999999984c-76.255319-43.574468-163.404255-65.361702-250.553191-65.361702-69.719149 0-135.080851 13.07234-198.26383 39.217021-61.004255 26.144681-115.47234 63.182979-161.225532 108.93617-45.753191 45.753191-82.791489 100.221277-108.93617 161.225532C17.429787 248.91914899999995 4.357447 314.280851 4.357447 384s13.07234 135.080851 39.217021 198.26383C69.719149 643.268085 106.757447 697.73617 152.510638 743.489362s100.221277 82.791489 161.225532 108.93617C376.919149 878.570213 442.280851 891.642553 512 891.642553c69.719149 0 135.080851-13.07234 198.26383-39.217021 61.004255-26.144681 115.47234-63.182979 161.225532-108.93617 45.753191-45.753191 82.791489-100.221277 108.93617-161.225532 26.144681-63.182979 39.217021-128.544681 39.217021-198.26383 0-78.434043-17.429787-154.689362-52.289362-224.408511-4.357447-10.893617-17.429787-13.07234-26.14468-8.714893-10.893617 4.357447-13.07234 17.429787-8.714894 26.144681 32.680851 65.361702 47.931915 135.080851 47.931915 206.978723C980.425532 643.268085 769.089362 852.425532 512 852.425532 252.731915 852.425532 43.574468 641.0893619999999 43.574468 384 43.574468 124.73191499999996 254.910638-84.42553199999998 512-84.42553199999998c80.612766 0 161.225532 21.787234 230.944681 61.004255 8.714894 4.357447 21.787234 2.178723 26.144681-6.53617 6.53617-10.893617 4.357447-23.965957-6.536171-28.323404zM808.306383 438.468085c-6.53617 10.893617-15.251064 19.608511-23.965957 30.502128v2.178723l-8.714894 8.714894c-10.893617 10.893617-19.608511 21.787234-28.323404 30.502127-19.608511 19.608511-30.502128 21.787234-37.038298 21.787234h-117.651064v47.931915c0 23.965957-19.608511 41.395745-41.395745 41.395745H230.944681c-23.965957 0-41.395745-19.608511-41.395745-41.395745v-328.987234c0-23.965957 19.608511-41.395745 41.395745-41.395744h47.931915c8.714894-37.038298 41.395745-63.182979 78.434042-63.182979 37.038298 0 71.897872 26.144681 78.434043 63.182979h113.293617c8.714894 0 17.429787 2.178723 26.144681 8.714893 6.53617-6.53617 17.429787-8.714894 26.144681-8.714893h10.893617c8.714894-37.038298 41.395745-63.182979 78.434042-63.182979 37.038298 0 71.897872 26.144681 78.434043 63.182979h23.965957c23.965957 0 41.395745 19.608511 41.395745 41.395744v132.902128c0 6.53617-2.178723 15.251064-13.072341 34.859574l-13.07234 19.608511zM357.310638 179.20000000000005c-26.144681 0-47.931915 21.787234-47.931915 45.753191 0 26.144681 21.787234 45.753191 47.931915 45.753192s47.931915-21.787234 47.931915-45.753192-21.787234-45.753191-47.931915-45.753191z m200.442553 311.557447h-4.357446v-239.659575c4.357447-4.357447 0-8.714894-4.357447-8.714893H435.744681c-8.714894 34.859574-39.217021 61.004255-76.255319 63.182978h-2.178724c-37.038298 0-69.719149-28.323404-76.255319-63.182978h-50.110638c-4.357447 0-8.714894 4.357447-2.178724 8.714893V580.085106c-6.53617 4.357447-2.178723 8.714894 2.178724 2.178724h318.093617c4.357447 6.53617 8.714894 2.178723 8.714893-2.178724v-89.327659z m132.902128-311.557447c-26.144681 0-47.931915 21.787234-47.931915 45.753191 0 26.144681 21.787234 45.753191 47.931915 45.753192 26.144681 0 47.931915-21.787234 47.931915-45.753192s-21.787234-45.753191-47.931915-45.753191z m111.114894 71.897872c0-4.357447-4.357447-8.714894-8.714894-8.714893h-23.965957c-6.53617 34.859574-37.038298 61.004255-71.897873 63.182978h-4.357446c-34.859574-2.178723-65.361702-28.323404-71.897873-63.182978H610.042553c-4.357447 0-8.714894 4.357447-8.714893 8.714893v239.659575c0 4.357447 4.357447 8.714894 8.714893 8.714893h106.757447c2.178723 0 6.53617-4.357447 19.608511-15.251063l2.178723-2.178724h-52.289362c-23.965957 0-41.395745-19.608511-41.395744-41.395744v-50.110639c0-23.965957 19.608511-41.395745 41.395744-41.395744h124.187234l-8.714893-98.042554z m0 130.723405h-124.187234c-4.357447 0-8.714894 4.357447-8.714894 8.714893v50.110639c0 4.357447 4.357447 8.714894 8.714894 8.714893h80.612766c4.357447-4.357447 8.714894-10.893617 10.893617-15.251064 6.53617-8.714894 13.07234-17.429787 17.429787-23.965957l2.178723 2.178723-2.178723-2.178723 4.357447 2.178723-4.357447-2.178723 2.178723-4.357447c8.714894-15.251064 10.893617-21.787234 10.893617-21.787234l2.178724-2.178723z"  horiz-adv-x="1024" />

    
    <glyph glyph-name="footer02" unicode="&#58881;" d="M1019.904 384c0-280.576-227.328-509.952-507.904-509.952C231.424-125.952 4.096 103.42399999999998 4.096 386.048 4.096 666.624 231.424 893.952 512 893.952c102.4 0 190.464-24.576 264.192-77.824 10.24-6.144 12.288-20.48 6.144-30.72s-20.48-12.288-30.72-6.144C686.08 826.3679999999999 606.208 848.896 512 848.896 256 848.896 47.104 640 47.104 384c0-258.048 208.896-466.944 464.896-466.944S976.896 125.952 976.896 384c0 112.64-38.912 221.184-108.544 296.96-8.192 8.192-8.192 22.528 2.048 30.72 8.192 8.192 22.528 8.192 30.72-2.048 75.776-83.968 118.784-202.752 118.784-325.632zM307.2 191.48800000000006c-2.048-10.24-10.24-18.432-20.48-18.432s-16.384 8.192-16.384 18.432v245.76c0 10.24 8.192 18.432 16.384 18.432 10.24 0 16.384-8.192 20.48-18.432v-245.76z m446.464 208.896c0 28.672-28.672 53.248-51.2 53.248h-102.4c8.192 18.432 16.384 63.488 10.24 104.448-4.096 32.768-22.528 57.344-51.2 67.584-20.48 6.144-43.008 4.096-53.248-8.192-14.336-14.336-20.48-40.96-26.624-69.632-4.096-18.432-10.24-38.912-14.336-49.152-16.384-28.672-51.2-43.008-59.392-45.056h-49.152c-10.24 0-16.384-8.192-8.192-18.432v-245.76c-8.192-10.24 0-18.432 8.192-18.432h47.104c14.336-8.192 67.584-34.816 131.072-34.816h116.736c18.432 0 53.248 8.192 65.536 28.672 12.288 22.528 36.864 215.04 36.864 235.52z m-32.768 0c0-22.528-26.624-198.656-34.816-217.088-2.048-4.096-20.48-12.288-34.816-12.288h-116.736c-61.44 0-116.736 34.816-116.736 34.816h-43.008V416.768h40.96c10.24 4.096 55.296 20.48 77.824 59.392 8.192 14.336 14.336 34.816 18.432 57.344 4.096 20.48 10.24 47.104 18.432 53.248 2.048 2.048 10.24 4.096 20.48 0 8.192-4.096 22.528-12.288 26.624-38.912 6.144-55.296-16.384-110.592-16.384-110.592-2.048-6.144-2.048-12.288 2.048-16.384 4.096-4.096 8.192-8.192 14.336-8.192h126.976c2.048 6.144 16.384-2.048 16.384-12.288z"  horiz-adv-x="1024" />

    
    <glyph glyph-name="xiaoxi" unicode="&#58906;" d="M192.128-89.6c-6.784 0-13.44 2.688-18.432 7.936-9.728 10.24-9.472 26.368 0.768 36.224l160 153.6c4.608 4.48 11.008 7.04 17.536 7.04H896c21.12 0 38.4 16.128 38.4 35.84V642.56c0 19.712-17.28 35.84-38.4 35.84H128.128c-21.12 0-38.4-16.128-38.4-35.84v-491.52c0-19.712 17.28-35.84 38.4-35.84h64c14.08 0 25.6-11.52 25.6-25.6s-11.52-25.6-25.6-25.6h-64c-49.408 0-89.6 39.04-89.6 87.04V642.56c0 48 40.192 87.04 89.6 87.04H896c49.408 0 89.6-39.04 89.6-87.04v-491.52c0-48-40.192-87.04-89.6-87.04H362.368L209.792-82.432c-4.992-4.864-11.392-7.168-17.664-7.168z"  horiz-adv-x="1024" />

    
    <glyph glyph-name="user" unicode="&#58965;" d="M512 767.78c49.68 0 96.39-19.35 131.52-54.48C678.65 678.17 698 631.46 698 581.78s-19.35-96.39-54.48-131.52c-35.13-35.13-81.84-54.48-131.52-54.48s-96.39 19.35-131.52 54.48C345.35 485.39 326 532.0899999999999 326 581.78s19.35 96.39 54.48 131.52c35.13 35.13 81.84 54.48 131.52 54.48m0 64c-138.07 0-250-111.93-250-250s111.93-250 250-250 250 111.93 250 250-111.93 250-250 250zM896.21-49.07000000000005c-16.78 0-30.75 12.96-31.92 29.71-13.73 196.15-162.31 351.11-342.96 351.11-180.65 0-329.22-154.96-342.96-351.11-1.17-16.74-15.13-29.71-31.92-29.71-18.6 0-33.22 15.8-31.93 34.35 3.31 47.57 13.53 93.8 30.5 137.84 20.37 52.88 49.57 100.4 86.78 141.26 37.41 41.07 81.04 73.35 129.69 95.95 50.61 23.5 104.38 35.42 159.83 35.42 55.45 0 109.22-11.92 159.83-35.42 48.65-22.59 92.28-54.87 129.69-95.95 37.21-40.86 66.41-88.39 86.78-141.26 16.97-44.04 27.18-90.27 30.5-137.84 1.31-18.55-13.31-34.35-31.91-34.35z"  horiz-adv-x="1024" />

    
    <glyph glyph-name="order-cancel" unicode="&#58907;" d="M512-128C229.248-128 0 101.24800000000005 0 384S229.248 896 512 896s512-229.248 512-512-229.248-512-512-512z m0 77.44c240 0 434.56 194.56 434.56 434.56 0 240-194.56 434.56-434.56 434.56C272 818.56 77.44 624 77.44 384c0-240 194.56-434.56 434.56-434.56zM511.658667 685.226667h0.682666a42.666667 42.666667 0 0 0 42.666667-42.666667v-344.917333a42.666667 42.666667 0 0 0-42.666667-42.666667h-0.682666a42.666667 42.666667 0 0 0-42.666667 42.666667V642.517333a42.666667 42.666667 0 0 0 42.666667 42.666667zM512 82.77333299999998a43.008 43.008 0 1 0 0 86.058667 43.008 43.008 0 0 0 0-86.058667z"  horiz-adv-x="1024" />

    


  </font>
</defs>
</svg>
